M48
;Layer_Color=9474304
;FILE_FORMAT=2:4
INCH
;TYPE=PLATED
T1F00S00C0.0080
T2F00S00C0.0135
T3F00S00C0.0157
T4F00S00C0.0500
T5F00S00C0.0600
%
T01
X011440Y002365
Y003235
X017910Y003365
Y004235
T02
X000437Y000402
X000837
X001237
X002410Y000402
X002810
X003210
X003610
X004010
X005100Y000402
X005500
X004750Y001350
Y002100
X005050
X005250Y002350
Y002650
Y002950
X005450Y003150
X005500Y003600
X004200Y003500
Y002450
X002600Y002300
X002300Y001300
X002900
X000450Y001050
X000400Y002550
X000450Y003100
Y003700
X000500Y005200
X000450Y005550
X001600Y004900
X001900
X002250
X002700Y004700
X003100
X003450Y004950
X003150Y005300
X002750
X002600Y003700
X001900Y003000
X004400Y004500
X004850Y005000
X005250Y004900
X005750Y005350
X006350
X005700Y004150
X005850Y003700
Y003150
X006100Y002800
X006700Y002850
X006950Y003400
X006550Y003700
X007050Y004150
X007950Y003650
X008800Y003600
X009100Y003900
X009500Y003800
Y003450
X009200Y003150
X009550Y002450
X010050Y002200
X010800
X011250Y001850
X011650Y001900
Y001400
X011300
X010300
Y000402
X009900
X010700
X011100
X011500
X012300
X012700
X013100
X013500
X013900
X014500Y000400
X015100Y000402
X015500
X015900
X016300
X016600Y001150
X017100Y001600
Y002200
X016300Y002300
X016000Y001850
X015400
X014850Y001800
X014250
X014200Y001050
X014950Y001150
X015600
X015700Y002850
X016050Y003100
X016600
X016700Y003650
X016750Y004200
X016800Y004750
X016100Y004800
X015600
X014600
X014300Y003100
X012750
X012050Y003450
X011350Y003700
X011100Y004150
X011550Y004650
X012100Y004850
X010150Y004900
X010100Y004450
X009500Y004200
X009600Y004850
X008450Y004350
X007900Y002800
X008050Y001950
Y001450
X008650Y001950
X009200Y002000
X007400Y001950
X006850
X005900Y002000
X006150Y001350
X006300Y000402
X005900
X007500
X007900
X008300
X008700
X012300Y001150
X012900
X017600
X018000
X018600Y001200
X018650Y000402
X018250
X017850
X017450
X019050
X019450
X019850
X020250
X020650
X021050
X020900Y001350
X019400Y001250
X019100Y002650
X019050Y003650
X018600Y004450
X017300
X016050Y003700
X015650Y003500
X017900Y002800
X018100Y002100
X021200Y002950
X010400Y003550
X021300Y002000
X022850
X023300Y001950
Y002500
X022800Y002600
X022750Y003050
X022800Y003900
X023850Y004250
Y005200
Y003050
X023900Y002500
Y001950
X024450
Y002500
X025050Y002550
X024950Y003000
X025500Y003100
X025700Y002550
X026100
X026500
X026550Y003650
X026350Y004000
X024900Y003950
X025900Y005450
X028232Y005498
Y005098
X029300Y004700
X029150Y003450
X029550
X030050
Y002700
X029550
X029150
X028750
Y003450
X028250Y003650
Y002450
X028232Y001950
Y001602
Y001202
Y000802
Y000402
X027850
X027450
X027550Y001050
Y002050
X029200Y001700
X029250Y000600
X030150Y000450
X030200Y001050
X031400Y001150
X031250Y000300
X032650Y000250
X032550Y001050
X032150Y003050
X031400Y002300
Y003850
X031800Y005450
X032500Y005050
X030250Y005200
X026400Y001050
X025800Y001100
X025850Y000402
X025450
X025050
X024650
X024250
X023850
X023450
X023050
X022650
X022250
X021450
X022850Y000950
X023450Y000900
X024100Y000950
X025050Y001050
X026250Y000402
Y005898
X025850
X025450
X025050
X023850
X023450
X023050
X022650
X022250
X021850
X021450
X026650
X027050
X027450
X027850
X028232
X029300Y005750
X030950Y005950
X032600
X021050Y005898
X020650
X020250
X019850
X019050
X018650
X018250
X017850
X017450
X016900Y005900
X016300Y005898
X015900
X015500
X015100
X013900
X013500
X013100
X012700
X012300
X011500
X011100
X010700
X010300
X009900
X008700
X008300
X007900
X007500
X006300
X005900
X005500
X005100
X004010Y005898
X003610
X003210
X002810
X002410
X001237Y005898
X000837
X000437
T03
X013550Y001631
Y003039
Y003501
X013259Y004072
X013841
X014129Y004535
X013550
X012971
X019520Y004155
X020099
X020678
X020391Y003693
X019808
X020099Y003122
Y002659
Y001252
T04
X001894Y000650
X004394Y000650
X000584Y001960
Y004340
X006894Y000650
X009394Y000650
X011894Y000650
X016894
X021894
X026894
X025550Y003950
Y004950
X028084Y004340
X024394Y005650
X019394
X014394
X011894Y005650
X009394Y005650
X006894Y005650
X004394Y005650
X001894Y005650
T05
X001600Y002000
X002600Y003000
X001600Y004000
X003600
Y002000
X030300Y002050
X032300
Y004050
X030300
X031300Y003050
M30
