G04 Layer_Physical_Order=1*
G04 Layer_Color=255*
%FSLAX24Y24*%
%MOIN*%
G70*
G01*
G75*
%ADD10R,0.0240X0.0490*%
%ADD11R,0.0409X0.0709*%
%ADD12R,0.0598X0.0598*%
%ADD13R,0.1799X0.1402*%
%ADD14R,0.0701X0.0650*%
%ADD15R,0.0339X0.1028*%
%ADD16R,0.0394X0.0394*%
%ADD17R,0.0380X0.0200*%
%ADD18R,0.0380X0.0320*%
%ADD19R,0.0360X0.0320*%
%ADD20R,0.0320X0.0360*%
%ADD21R,0.0520X0.0385*%
%ADD22R,0.0480X0.0880*%
%ADD23R,0.1420X0.0870*%
%ADD24C,0.0300*%
%ADD25C,0.0150*%
%ADD26C,0.0870*%
%ADD27C,0.0157*%
%ADD28C,0.0150*%
%ADD29C,0.0620*%
%ADD30C,0.0252*%
G36*
X32746Y204D02*
X204D01*
Y6046D01*
X32746D01*
Y204D01*
D02*
G37*
%LPC*%
G36*
X12284Y3307D02*
X11875D01*
X11816Y3296D01*
X11767Y3262D01*
X11733Y3213D01*
X11722Y3154D01*
Y2446D01*
X11733Y2387D01*
X11767Y2338D01*
X11777Y2331D01*
Y1820D01*
X11787Y1742D01*
X11817Y1669D01*
X11866Y1607D01*
X11917Y1555D01*
Y1490D01*
X11929Y1431D01*
X11962Y1382D01*
X12011Y1349D01*
X12070Y1337D01*
X12430D01*
X12489Y1349D01*
X12513Y1365D01*
X12550Y1378D01*
X12587Y1365D01*
X12611Y1349D01*
X12670Y1337D01*
X13030D01*
X13089Y1349D01*
X13138Y1382D01*
X13171Y1431D01*
X13183Y1490D01*
Y1810D01*
X13171Y1869D01*
X13164Y1879D01*
X13181Y1933D01*
X13207Y1939D01*
X13257Y1972D01*
X13290Y2021D01*
X13301Y2080D01*
Y2678D01*
X13290Y2737D01*
X13257Y2786D01*
X13207Y2820D01*
X13148Y2831D01*
X12550D01*
X12491Y2820D01*
X12487Y2817D01*
X12437Y2844D01*
Y3154D01*
X12426Y3213D01*
X12392Y3262D01*
X12343Y3296D01*
X12284Y3307D01*
D02*
G37*
G36*
X18755Y4307D02*
X18345D01*
X18287Y4296D01*
X18237Y4262D01*
X18204Y4213D01*
X18192Y4154D01*
Y3446D01*
X18204Y3387D01*
X18237Y3338D01*
X18247Y3331D01*
Y2700D01*
X18258Y2622D01*
X18287Y2551D01*
Y2470D01*
X18299Y2411D01*
X18315Y2387D01*
X18328Y2350D01*
X18315Y2313D01*
X18299Y2289D01*
X18287Y2230D01*
Y1870D01*
X18299Y1811D01*
X18332Y1762D01*
X18381Y1729D01*
X18440Y1717D01*
X18760D01*
X18819Y1729D01*
X18847Y1747D01*
X18946D01*
Y1701D01*
X18958Y1642D01*
X18991Y1593D01*
X19041Y1559D01*
X19099Y1548D01*
X19698D01*
X19756Y1559D01*
X19806Y1593D01*
X19839Y1642D01*
X19851Y1701D01*
Y2299D01*
X19839Y2358D01*
X19806Y2407D01*
X19756Y2441D01*
X19698Y2452D01*
X19099D01*
X19041Y2441D01*
X18991Y2407D01*
X18967Y2371D01*
X18929Y2370D01*
X18910Y2398D01*
X18901Y2412D01*
X18913Y2470D01*
Y2830D01*
X18901Y2889D01*
X18868Y2938D01*
X18853Y2949D01*
Y3331D01*
X18863Y3338D01*
X18896Y3387D01*
X18908Y3446D01*
Y4154D01*
X18896Y4213D01*
X18863Y4262D01*
X18813Y4296D01*
X18755Y4307D01*
D02*
G37*
G36*
X15260Y5433D02*
X14940D01*
X14881Y5421D01*
X14832Y5388D01*
X14826Y5379D01*
X8521D01*
X8489Y5401D01*
X8430Y5413D01*
X8070D01*
X8011Y5401D01*
X7987Y5385D01*
X7950Y5372D01*
X7913Y5385D01*
X7889Y5401D01*
X7830Y5413D01*
X7470D01*
X7411Y5401D01*
X7362Y5368D01*
X7329Y5319D01*
X7317Y5260D01*
Y5253D01*
X6782D01*
X6730Y5263D01*
X6370D01*
X6311Y5251D01*
X6262Y5218D01*
X6238D01*
X6189Y5251D01*
X6130Y5263D01*
X5770D01*
X5711Y5251D01*
X5662Y5218D01*
X5629Y5169D01*
X5617Y5110D01*
Y5045D01*
X5243Y4670D01*
X5132D01*
X4639Y5164D01*
X4576Y5212D01*
X4503Y5242D01*
X4502Y5242D01*
X4489Y5251D01*
X4430Y5263D01*
X4070D01*
X4011Y5251D01*
X3962Y5218D01*
X3929Y5169D01*
X3917Y5110D01*
Y4790D01*
X3929Y4731D01*
X3962Y4682D01*
X4011Y4649D01*
X4070Y4637D01*
X4310D01*
X4637Y4310D01*
Y4132D01*
X4649Y4074D01*
X4665Y4050D01*
X4678Y4013D01*
X4665Y3975D01*
X4649Y3951D01*
X4637Y3893D01*
Y3715D01*
X4586Y3664D01*
X4538Y3601D01*
X4508Y3528D01*
X4497Y3450D01*
Y3303D01*
X4382D01*
X4330Y3313D01*
X3970D01*
X3911Y3301D01*
X3862Y3268D01*
X3838D01*
X3789Y3301D01*
X3730Y3313D01*
X3370D01*
X3318Y3303D01*
X3102D01*
X3089Y3327D01*
X3016Y3416D01*
X2927Y3489D01*
X2825Y3543D01*
X2715Y3577D01*
X2600Y3588D01*
X2485Y3577D01*
X2375Y3543D01*
X2273Y3489D01*
X2184Y3416D01*
X2111Y3327D01*
X2057Y3225D01*
X2023Y3115D01*
X2012Y3000D01*
X2023Y2885D01*
X2057Y2775D01*
X2111Y2673D01*
X2184Y2584D01*
X2273Y2511D01*
X2375Y2457D01*
X2485Y2423D01*
X2600Y2412D01*
X2715Y2423D01*
X2825Y2457D01*
X2927Y2511D01*
X3016Y2584D01*
X3089Y2673D01*
X3102Y2697D01*
X3318D01*
X3370Y2687D01*
X3730D01*
X3789Y2699D01*
X3813Y2715D01*
X3850Y2728D01*
X3887Y2715D01*
X3911Y2699D01*
X3970Y2687D01*
X4330D01*
X4382Y2697D01*
X4517D01*
X4551Y2675D01*
X4610Y2663D01*
X4637D01*
X4649Y2654D01*
X4722Y2624D01*
X4800Y2613D01*
X4878Y2624D01*
X4951Y2654D01*
X4963Y2663D01*
X4990D01*
X5049Y2675D01*
X5098Y2708D01*
X5131Y2757D01*
X5143Y2816D01*
Y3016D01*
X5131Y3074D01*
X5103Y3117D01*
Y3325D01*
X5132Y3355D01*
X5310D01*
X5369Y3366D01*
X5418Y3399D01*
X5451Y3449D01*
X5463Y3507D01*
Y3893D01*
X5451Y3951D01*
X5435Y3975D01*
X5423Y4010D01*
X5426Y4019D01*
X5438Y4047D01*
X5476Y4063D01*
X5539Y4111D01*
X6065Y4637D01*
X6130D01*
X6189Y4649D01*
X6197Y4655D01*
X6247Y4628D01*
Y4397D01*
X6229Y4369D01*
X6217Y4310D01*
Y3990D01*
X6229Y3931D01*
X6262Y3882D01*
X6311Y3849D01*
X6370Y3837D01*
X6730D01*
X6789Y3849D01*
X6838Y3882D01*
X6871Y3931D01*
X6883Y3990D01*
Y4310D01*
X6871Y4369D01*
X6853Y4397D01*
Y4647D01*
X7347D01*
Y4597D01*
X7329Y4569D01*
X7317Y4510D01*
Y4190D01*
X7329Y4131D01*
X7362Y4082D01*
X7411Y4049D01*
X7470Y4037D01*
X7830D01*
X7889Y4049D01*
X7938Y4082D01*
X7971Y4131D01*
X7983Y4190D01*
Y4510D01*
X7971Y4569D01*
X7953Y4597D01*
Y4778D01*
X8003Y4805D01*
X8011Y4799D01*
X8070Y4787D01*
X8430D01*
X8489Y4799D01*
X8538Y4832D01*
X8571Y4881D01*
X8579Y4921D01*
X8737D01*
Y4820D01*
X8749Y4761D01*
X8765Y4737D01*
X8778Y4700D01*
X8765Y4663D01*
X8749Y4639D01*
X8737Y4580D01*
Y4515D01*
X8136Y3914D01*
X8088Y3851D01*
X8058Y3778D01*
X8047Y3700D01*
Y3453D01*
X7525D01*
X7525Y3453D01*
X7447Y3442D01*
X7374Y3412D01*
X7319Y3370D01*
X7140D01*
X7081Y3359D01*
X7032Y3326D01*
X6999Y3276D01*
X6987Y3217D01*
Y2833D01*
X6999Y2774D01*
X7015Y2750D01*
X7028Y2713D01*
X7015Y2675D01*
X7000Y2653D01*
X6647D01*
X6619Y2671D01*
X6560Y2683D01*
X6451D01*
X6428Y2692D01*
X6350Y2703D01*
X5653D01*
X5575Y2692D01*
X5502Y2662D01*
X5490Y2653D01*
X5463D01*
X5405Y2641D01*
X5355Y2608D01*
X5322Y2559D01*
X5310Y2500D01*
Y2300D01*
X5322Y2241D01*
X5355Y2192D01*
X5405Y2159D01*
X5463Y2147D01*
X5490D01*
X5502Y2138D01*
X5575Y2108D01*
X5653Y2097D01*
X6108D01*
X6115Y2087D01*
X6128Y2050D01*
X6115Y2013D01*
X6099Y1989D01*
X6087Y1930D01*
Y1570D01*
X6099Y1511D01*
X6132Y1462D01*
X6181Y1429D01*
X6240Y1417D01*
X6305D01*
X6486Y1236D01*
X6549Y1188D01*
X6622Y1158D01*
X6700Y1147D01*
X7018D01*
X7070Y1137D01*
X7430D01*
X7489Y1149D01*
X7538Y1182D01*
X7571Y1231D01*
X7583Y1290D01*
Y1610D01*
X7571Y1669D01*
X7538Y1718D01*
X7489Y1751D01*
X7430Y1763D01*
X7070D01*
X7018Y1753D01*
X6825D01*
X6713Y1865D01*
Y1930D01*
X6701Y1989D01*
X6695Y1997D01*
X6722Y2047D01*
X7350D01*
X7404Y2055D01*
X7660D01*
X7719Y2066D01*
X7765Y2097D01*
X8118D01*
X8170Y2087D01*
X8530D01*
X8589Y2099D01*
X8613Y2115D01*
X8650Y2128D01*
X8687Y2115D01*
X8711Y2099D01*
X8770Y2087D01*
X9130D01*
X9189Y2099D01*
X9238Y2132D01*
X9271Y2181D01*
X9283Y2240D01*
Y2305D01*
X9775Y2797D01*
X9803D01*
X9831Y2779D01*
X9890Y2767D01*
X10210D01*
X10269Y2779D01*
X10318Y2812D01*
X10351Y2861D01*
X10363Y2920D01*
Y3280D01*
X10353Y3332D01*
Y3628D01*
X10403Y3655D01*
X10411Y3649D01*
X10470Y3637D01*
X10497D01*
Y3269D01*
X10487Y3262D01*
X10454Y3213D01*
X10442Y3154D01*
Y2446D01*
X10454Y2387D01*
X10487Y2338D01*
X10537Y2304D01*
X10595Y2293D01*
X11005D01*
X11063Y2304D01*
X11113Y2338D01*
X11146Y2387D01*
X11158Y2446D01*
Y3154D01*
X11146Y3213D01*
X11113Y3262D01*
X11103Y3269D01*
Y3800D01*
X11092Y3878D01*
X11062Y3951D01*
X11014Y4014D01*
X10983Y4045D01*
Y4110D01*
X10971Y4169D01*
X10953Y4197D01*
Y4358D01*
X10988Y4382D01*
X11021Y4431D01*
X11033Y4490D01*
Y4810D01*
X11021Y4869D01*
X11020Y4871D01*
X11047Y4921D01*
X14787D01*
Y4920D01*
X14799Y4861D01*
X14815Y4837D01*
X14828Y4800D01*
X14815Y4763D01*
X14799Y4739D01*
X14787Y4680D01*
Y4599D01*
X14758Y4528D01*
X14747Y4450D01*
Y4062D01*
X14731Y4059D01*
X14682Y4026D01*
X14649Y3976D01*
X14637Y3918D01*
Y3532D01*
X14649Y3474D01*
X14665Y3450D01*
X14678Y3413D01*
X14665Y3375D01*
X14649Y3351D01*
X14637Y3293D01*
Y2907D01*
X14648Y2854D01*
X14637Y2841D01*
X14616Y2825D01*
X14608Y2820D01*
X14550Y2831D01*
X13952D01*
X13893Y2820D01*
X13843Y2786D01*
X13810Y2737D01*
X13799Y2678D01*
Y2080D01*
X13810Y2021D01*
X13843Y1972D01*
X13893Y1939D01*
X13952Y1927D01*
X14550D01*
X14609Y1939D01*
X14658Y1972D01*
X14691Y2021D01*
X14702Y2077D01*
X14970D01*
X15011Y2049D01*
X15070Y2037D01*
X15430D01*
X15489Y2049D01*
X15538Y2082D01*
X15562D01*
X15611Y2049D01*
X15670Y2037D01*
X16030D01*
X16089Y2049D01*
X16138Y2082D01*
X16171Y2131D01*
X16183Y2190D01*
Y2255D01*
X16297Y2369D01*
X16347Y2349D01*
Y2249D01*
X16332Y2238D01*
X16299Y2189D01*
X16287Y2130D01*
Y1770D01*
X16299Y1711D01*
X16332Y1662D01*
X16381Y1629D01*
X16440Y1617D01*
X16760D01*
X16819Y1629D01*
X16868Y1662D01*
X16901Y1711D01*
X16913Y1770D01*
Y1851D01*
X16942Y1922D01*
X16953Y2000D01*
X16953Y2000D01*
Y2378D01*
X17003Y2405D01*
X17011Y2399D01*
X17070Y2387D01*
X17135D01*
X17297Y2225D01*
Y2182D01*
X17287Y2130D01*
Y1770D01*
X17299Y1711D01*
X17332Y1662D01*
X17381Y1629D01*
X17440Y1617D01*
X17760D01*
X17819Y1629D01*
X17868Y1662D01*
X17901Y1711D01*
X17913Y1770D01*
Y2130D01*
X17903Y2182D01*
Y2350D01*
X17903Y2350D01*
X17892Y2428D01*
X17862Y2501D01*
X17814Y2564D01*
X17583Y2795D01*
Y2860D01*
X17571Y2919D01*
X17553Y2947D01*
Y3317D01*
X17583Y3338D01*
X17616Y3387D01*
X17628Y3446D01*
Y4154D01*
X17616Y4213D01*
X17583Y4262D01*
X17534Y4296D01*
X17475Y4307D01*
X17066D01*
X17007Y4296D01*
X16958Y4262D01*
X16924Y4213D01*
X16913Y4154D01*
Y3446D01*
X16924Y3387D01*
X16947Y3353D01*
Y3022D01*
X16897Y2995D01*
X16889Y3001D01*
X16830Y3013D01*
X16470D01*
X16418Y3003D01*
X16200D01*
X16200Y3003D01*
X16122Y2992D01*
X16049Y2962D01*
X15986Y2914D01*
X15735Y2663D01*
X15670D01*
X15611Y2651D01*
X15603Y2645D01*
X15553Y2672D01*
Y2900D01*
X15553Y2900D01*
X15542Y2978D01*
X15512Y3051D01*
X15464Y3114D01*
X15463Y3115D01*
Y3293D01*
X15451Y3351D01*
X15435Y3375D01*
X15422Y3413D01*
X15435Y3450D01*
X15451Y3474D01*
X15463Y3532D01*
Y3918D01*
X15451Y3976D01*
X15418Y4026D01*
X15369Y4059D01*
X15353Y4062D01*
Y4197D01*
X15475D01*
X15567Y4105D01*
Y4040D01*
X15579Y3981D01*
X15612Y3932D01*
X15661Y3899D01*
X15720Y3887D01*
X16080D01*
X16139Y3899D01*
X16188Y3932D01*
X16221Y3981D01*
X16233Y4040D01*
Y4360D01*
X16221Y4419D01*
X16188Y4468D01*
X16139Y4501D01*
X16080Y4513D01*
X16015D01*
X15814Y4714D01*
X15770Y4747D01*
X15787Y4797D01*
X21225D01*
X21787Y4235D01*
Y4170D01*
X21799Y4111D01*
X21815Y4087D01*
X21828Y4050D01*
X21815Y4013D01*
X21799Y3989D01*
X21787Y3930D01*
Y3865D01*
X21786Y3864D01*
X21738Y3801D01*
X21708Y3728D01*
X21697Y3650D01*
Y3147D01*
X21679Y3119D01*
X21667Y3060D01*
Y2740D01*
X21679Y2681D01*
X21697Y2653D01*
Y2420D01*
X21640D01*
X21581Y2409D01*
X21532Y2376D01*
X21499Y2326D01*
X21487Y2268D01*
Y1883D01*
X21495Y1840D01*
X21473Y1795D01*
X21464Y1785D01*
X21446Y1782D01*
X21252Y1976D01*
Y2299D01*
X21241Y2358D01*
X21207Y2407D01*
X21158Y2441D01*
X21099Y2452D01*
X20501D01*
X20442Y2441D01*
X20393Y2407D01*
X20359Y2358D01*
X20348Y2299D01*
Y1701D01*
X20359Y1642D01*
X20393Y1593D01*
X20442Y1559D01*
X20501Y1548D01*
X20824D01*
X21136Y1236D01*
X21136Y1236D01*
X21199Y1188D01*
X21272Y1158D01*
X21350Y1147D01*
X21535D01*
X21581Y1116D01*
X21640Y1105D01*
X22160D01*
X22219Y1116D01*
X22265Y1147D01*
X22476D01*
X22479Y1131D01*
X22512Y1082D01*
X22561Y1049D01*
X22620Y1037D01*
X22980D01*
X23039Y1049D01*
X23063Y1065D01*
X23100Y1078D01*
X23137Y1065D01*
X23161Y1049D01*
X23220Y1037D01*
X23580D01*
X23632Y1047D01*
X24750D01*
X24828Y1058D01*
X24901Y1088D01*
X24964Y1136D01*
X25145Y1317D01*
X25210D01*
X25269Y1329D01*
X25297Y1347D01*
X25350D01*
X25428Y1358D01*
X25501Y1388D01*
X25564Y1436D01*
X25915Y1787D01*
X25980D01*
X26039Y1799D01*
X26047Y1805D01*
X26097Y1778D01*
Y1647D01*
X26079Y1619D01*
X26067Y1560D01*
Y1240D01*
X26079Y1181D01*
X26112Y1132D01*
X26161Y1099D01*
X26220Y1087D01*
X26580D01*
X26632Y1097D01*
X27100D01*
X27178Y1108D01*
X27201Y1117D01*
X27310D01*
X27369Y1129D01*
X27418Y1162D01*
X27451Y1211D01*
X27463Y1270D01*
Y1630D01*
X27451Y1689D01*
X27435Y1713D01*
X27422Y1750D01*
X27435Y1787D01*
X27451Y1811D01*
X27463Y1870D01*
Y2230D01*
X27453Y2282D01*
Y2505D01*
X27460D01*
X27519Y2516D01*
X27568Y2549D01*
X27601Y2599D01*
X27613Y2657D01*
Y2747D01*
X30798D01*
X30811Y2723D01*
X30884Y2634D01*
X30973Y2561D01*
X31075Y2507D01*
X31185Y2473D01*
X31300Y2462D01*
X31415Y2473D01*
X31525Y2507D01*
X31627Y2561D01*
X31716Y2634D01*
X31789Y2723D01*
X31843Y2825D01*
X31877Y2935D01*
X31888Y3050D01*
X31877Y3165D01*
X31843Y3275D01*
X31789Y3377D01*
X31716Y3466D01*
X31627Y3539D01*
X31525Y3593D01*
X31415Y3627D01*
X31300Y3638D01*
X31185Y3627D01*
X31075Y3593D01*
X30973Y3539D01*
X30884Y3466D01*
X30811Y3377D01*
X30798Y3353D01*
X27613D01*
Y3668D01*
X27601Y3726D01*
X27568Y3776D01*
X27519Y3809D01*
X27503Y3812D01*
Y3963D01*
X27519Y3966D01*
X27568Y3999D01*
X27601Y4049D01*
X27613Y4108D01*
Y4493D01*
X27601Y4551D01*
X27585Y4575D01*
X27572Y4613D01*
X27585Y4650D01*
X27601Y4674D01*
X27613Y4733D01*
Y5117D01*
X27601Y5176D01*
X27568Y5226D01*
X27519Y5259D01*
X27460Y5270D01*
X26940D01*
X26881Y5259D01*
X26832Y5226D01*
X26816Y5203D01*
X26597D01*
X26569Y5221D01*
X26510Y5233D01*
X26401D01*
X26378Y5242D01*
X26300Y5253D01*
X25898D01*
X25878Y5278D01*
X25782Y5352D01*
X25670Y5398D01*
X25550Y5414D01*
X25430Y5398D01*
X25318Y5352D01*
X25222Y5278D01*
X25202Y5253D01*
X25101D01*
X25059Y5281D01*
X25000Y5293D01*
X24520D01*
X24461Y5281D01*
X24412Y5248D01*
X24379Y5199D01*
X24367Y5140D01*
Y4260D01*
X24379Y4201D01*
X24412Y4152D01*
X24461Y4119D01*
X24520Y4107D01*
X25000D01*
X25059Y4119D01*
X25108Y4152D01*
X25141Y4201D01*
X25153Y4260D01*
Y4647D01*
X25202D01*
X25222Y4622D01*
X25318Y4548D01*
X25430Y4502D01*
X25550Y4486D01*
X25670Y4502D01*
X25782Y4548D01*
X25878Y4622D01*
X25898Y4647D01*
X26058D01*
X26082Y4612D01*
X26131Y4579D01*
X26190Y4567D01*
X26510D01*
X26569Y4579D01*
X26597Y4597D01*
X26777D01*
X26797Y4559D01*
X26798Y4547D01*
X26787Y4493D01*
Y4108D01*
X26799Y4049D01*
X26832Y3999D01*
X26881Y3966D01*
X26897Y3963D01*
Y3812D01*
X26881Y3809D01*
X26835Y3778D01*
X26764D01*
X26686Y3767D01*
X26613Y3737D01*
X26550Y3689D01*
X26274Y3413D01*
X26170D01*
X26111Y3401D01*
X26062Y3368D01*
X26029Y3319D01*
X26017Y3260D01*
Y2940D01*
X26029Y2881D01*
X26062Y2832D01*
X26111Y2799D01*
X26170Y2787D01*
X26530D01*
X26589Y2799D01*
X26638Y2832D01*
X26671Y2881D01*
X26683Y2940D01*
Y2966D01*
X26737Y3020D01*
X26787Y3000D01*
Y2657D01*
X26799Y2599D01*
X26832Y2549D01*
X26847Y2539D01*
Y2282D01*
X26837Y2230D01*
Y1870D01*
X26849Y1811D01*
X26865Y1787D01*
X26878Y1750D01*
X26865Y1713D01*
X26858Y1703D01*
X26703D01*
Y1853D01*
X26721Y1881D01*
X26733Y1940D01*
Y2260D01*
X26721Y2319D01*
X26688Y2368D01*
X26639Y2401D01*
X26580Y2413D01*
X26220D01*
X26161Y2401D01*
X26137Y2385D01*
X26100Y2372D01*
X26063Y2385D01*
X26039Y2401D01*
X25980Y2413D01*
X25620D01*
X25561Y2401D01*
X25512Y2368D01*
X25479Y2319D01*
X25467Y2260D01*
Y2195D01*
X25248Y1975D01*
X25210Y1983D01*
X24890D01*
X24831Y1971D01*
X24782Y1938D01*
X24749Y1889D01*
X24737Y1830D01*
Y1765D01*
X24625Y1653D01*
X23632D01*
X23580Y1663D01*
X23220D01*
X23161Y1651D01*
X23112Y1618D01*
X23088D01*
X23039Y1651D01*
X22980Y1663D01*
X22915D01*
X22914Y1664D01*
X22851Y1712D01*
X22778Y1742D01*
X22700Y1753D01*
X22314D01*
X22287Y1803D01*
X22301Y1824D01*
X22313Y1883D01*
Y2268D01*
X22303Y2320D01*
Y2653D01*
X22321Y2681D01*
X22333Y2740D01*
Y3060D01*
X22321Y3119D01*
X22303Y3147D01*
Y3426D01*
X22319Y3429D01*
X22368Y3462D01*
X22401Y3511D01*
X22413Y3570D01*
Y3930D01*
X22401Y3989D01*
X22385Y4013D01*
X22372Y4050D01*
X22385Y4087D01*
X22401Y4111D01*
X22413Y4170D01*
Y4235D01*
X22501Y4323D01*
X22547Y4304D01*
Y4260D01*
X22559Y4201D01*
X22592Y4152D01*
X22641Y4119D01*
X22700Y4107D01*
X23180D01*
X23239Y4119D01*
X23288Y4152D01*
X23321Y4201D01*
X23333Y4260D01*
Y5140D01*
X23321Y5199D01*
X23288Y5248D01*
X23239Y5281D01*
X23180Y5293D01*
X22700D01*
X22641Y5281D01*
X22592Y5248D01*
X22559Y5199D01*
X22547Y5140D01*
Y5003D01*
X22450D01*
X22450Y5003D01*
X22372Y4992D01*
X22299Y4962D01*
X22236Y4914D01*
X22100Y4778D01*
X21564Y5314D01*
X21501Y5362D01*
X21428Y5392D01*
X21350Y5403D01*
X15347D01*
X15319Y5421D01*
X15260Y5433D01*
D02*
G37*
%LPD*%
G36*
X10380Y4871D02*
X10379Y4869D01*
X10367Y4810D01*
Y4701D01*
X10358Y4678D01*
X10347Y4600D01*
Y4272D01*
X10297Y4245D01*
X10289Y4251D01*
X10230Y4263D01*
X9870D01*
X9811Y4251D01*
X9762Y4218D01*
X9729Y4169D01*
X9717Y4110D01*
Y3790D01*
X9729Y3731D01*
X9747Y3703D01*
Y3403D01*
X9650D01*
X9572Y3392D01*
X9499Y3362D01*
X9436Y3314D01*
X9436Y3314D01*
X8835Y2713D01*
X8770D01*
X8711Y2701D01*
X8687Y2685D01*
X8650Y2672D01*
X8613Y2685D01*
X8589Y2701D01*
X8530Y2713D01*
X8170D01*
X8118Y2703D01*
X7814D01*
X7787Y2753D01*
X7801Y2774D01*
X7813Y2833D01*
Y2847D01*
X8118D01*
X8170Y2837D01*
X8530D01*
X8589Y2849D01*
X8638Y2882D01*
X8671Y2931D01*
X8683Y2990D01*
Y3310D01*
X8671Y3369D01*
X8653Y3397D01*
Y3575D01*
X9145Y4067D01*
X9210D01*
X9269Y4079D01*
X9318Y4112D01*
X9351Y4161D01*
X9363Y4220D01*
Y4580D01*
X9351Y4639D01*
X9335Y4663D01*
X9322Y4700D01*
X9335Y4737D01*
X9351Y4761D01*
X9363Y4820D01*
Y4921D01*
X10353D01*
X10380Y4871D01*
D02*
G37*
D10*
X17910Y4165D02*
D03*
Y3435D02*
D03*
X11440Y3165D02*
D03*
Y2435D02*
D03*
D11*
X17270Y3800D02*
D03*
X18550D02*
D03*
X10800Y2800D02*
D03*
X12080D02*
D03*
D12*
X19398Y2000D02*
D03*
X20800D02*
D03*
X12849Y2379D02*
D03*
X14251D02*
D03*
D13*
X20099Y3821D02*
D03*
X13550Y4200D02*
D03*
D14*
X20099Y2795D02*
D03*
X13550Y3174D02*
D03*
D15*
X20099Y1961D02*
D03*
X13550Y2340D02*
D03*
D16*
X20099Y1252D02*
D03*
X13550Y1631D02*
D03*
D17*
X5653Y2400D02*
D03*
X4800Y2916D02*
D03*
Y2400D02*
D03*
D18*
X5653Y2856D02*
D03*
D19*
X26400Y1400D02*
D03*
X25800D02*
D03*
X26400Y2100D02*
D03*
X25800D02*
D03*
X10700Y4650D02*
D03*
X11300D02*
D03*
X17250Y2700D02*
D03*
X16650D02*
D03*
X10650Y3950D02*
D03*
X10050D02*
D03*
X7650Y4350D02*
D03*
X8250D02*
D03*
X6550Y4950D02*
D03*
X5950D02*
D03*
X8250Y5100D02*
D03*
X7650D02*
D03*
X7250Y1450D02*
D03*
X7850D02*
D03*
X23400Y1350D02*
D03*
X22800D02*
D03*
X25750Y3100D02*
D03*
X26350D02*
D03*
X21400Y2900D02*
D03*
X22000D02*
D03*
X15850Y2350D02*
D03*
X15250D02*
D03*
X12850Y1650D02*
D03*
X12250D02*
D03*
X8950Y2400D02*
D03*
X8350D02*
D03*
X4150Y3000D02*
D03*
X3550D02*
D03*
X6550Y4150D02*
D03*
X5950D02*
D03*
X16500Y4200D02*
D03*
X15900D02*
D03*
X4250Y4950D02*
D03*
X3650D02*
D03*
X8950Y3150D02*
D03*
X8350D02*
D03*
D20*
X25050Y1650D02*
D03*
Y2250D02*
D03*
X22100Y4350D02*
D03*
Y3750D02*
D03*
X17600Y1950D02*
D03*
Y1350D02*
D03*
X16600Y1950D02*
D03*
Y1350D02*
D03*
X10050Y3100D02*
D03*
Y2500D02*
D03*
X6400Y2350D02*
D03*
Y1750D02*
D03*
X15100Y5100D02*
D03*
Y4500D02*
D03*
X9050Y5000D02*
D03*
Y4400D02*
D03*
X27150Y2050D02*
D03*
Y1450D02*
D03*
X18600Y2050D02*
D03*
Y2650D02*
D03*
X26350Y4300D02*
D03*
Y4900D02*
D03*
D21*
X27200Y2850D02*
D03*
Y3475D02*
D03*
X21900Y1450D02*
D03*
Y2075D02*
D03*
X27200Y4300D02*
D03*
Y4925D02*
D03*
X15050Y3100D02*
D03*
Y3725D02*
D03*
X5050Y3700D02*
D03*
Y4325D02*
D03*
X7400Y2400D02*
D03*
Y3025D02*
D03*
D22*
X24760Y4700D02*
D03*
X23850D02*
D03*
X22940D02*
D03*
D23*
X23850Y2250D02*
D03*
D24*
X31300Y3050D02*
X31400D01*
X27400D02*
X31300D01*
X15100Y5100D02*
X21350D01*
X22100Y4350D01*
X27200Y2850D02*
X27400Y3050D01*
X26350Y3100D02*
X26389D01*
X26764Y3475D01*
X27200D01*
Y4300D01*
X27175Y4900D02*
X27200Y4925D01*
X26350Y4900D02*
X27175D01*
X26300Y4950D02*
X26350Y4900D01*
X25550Y4950D02*
X26300D01*
X25010D02*
X25550D01*
X24760Y4700D02*
X25010Y4950D01*
X22450Y4700D02*
X22940D01*
X22100Y4350D02*
X22450Y4700D01*
X22000Y3650D02*
X22100Y3750D01*
X22000Y2900D02*
Y3650D01*
Y2175D02*
Y2900D01*
X21900Y2075D02*
X22000Y2175D01*
X27100Y1400D02*
X27150Y1450D01*
X26400Y1400D02*
X27100D01*
X26400D02*
Y2100D01*
X25350Y1650D02*
X25800Y2100D01*
X25050Y1650D02*
X25350D01*
X24750Y1350D02*
X25050Y1650D01*
X23400Y1350D02*
X24750D01*
X22700Y1450D02*
X22800Y1350D01*
X21900Y1450D02*
X22700D01*
X21350D02*
X21900D01*
X20800Y2000D02*
X21350Y1450D01*
X19348Y2050D02*
X19398Y2000D01*
X18600Y2050D02*
X19348D01*
X18550Y2700D02*
X18600Y2650D01*
X18550Y2700D02*
Y3800D01*
X17600Y1950D02*
Y2350D01*
X17250Y2700D02*
X17600Y2350D01*
X17250Y3780D02*
X17270Y3800D01*
X17250Y2700D02*
Y3780D01*
X16600Y1950D02*
X16650Y2000D01*
Y2700D01*
X16200D02*
X16650D01*
X15850Y2350D02*
X16200Y2700D01*
X15100Y4500D02*
X15600D01*
X15900Y4200D01*
X15050Y4450D02*
X15100Y4500D01*
X15050Y3725D02*
Y4450D01*
Y3100D02*
X15250Y2900D01*
Y2350D02*
Y2900D01*
X15221Y2379D02*
X15250Y2350D01*
X14251Y2379D02*
X15221D01*
X12849D02*
X12850Y2378D01*
Y1650D02*
Y2378D01*
X12080Y1820D02*
X12250Y1650D01*
X12080Y1820D02*
Y2800D01*
X10650Y4600D02*
X10700Y4650D01*
X10650Y3950D02*
Y4600D01*
X10800Y2800D02*
Y3800D01*
X10650Y3950D02*
X10800Y3800D01*
X10050Y3100D02*
Y3950D01*
X9650Y3100D02*
X10050D01*
X8950Y2400D02*
X9650Y3100D01*
X7350Y2350D02*
X7400Y2400D01*
X8350D01*
Y3700D02*
X9050Y4400D01*
X8350Y3150D02*
Y3700D01*
X7525Y3150D02*
X8350D01*
X7400Y3025D02*
X7525Y3150D01*
X6700Y1450D02*
X7250D01*
X6400Y1750D02*
X6700Y1450D01*
X6400Y2350D02*
X7350D01*
X6350Y2400D02*
X6400Y2350D01*
X5653Y2400D02*
X6350D01*
X7650Y4350D02*
Y5100D01*
X7500Y4950D02*
X7650Y5100D01*
X6550Y4950D02*
X7500D01*
X6550Y4150D02*
Y4950D01*
X5325Y4325D02*
X5950Y4950D01*
X5050Y4325D02*
X5325D01*
X4250Y4950D02*
X4425D01*
X5050Y4325D01*
X4800Y3450D02*
X5050Y3700D01*
X4800Y2916D02*
Y3450D01*
X4716Y3000D02*
X4800Y2916D01*
X4150Y3000D02*
X4716D01*
X2600D02*
X3550D01*
X27150Y2800D02*
X27200Y2850D01*
X27150Y2050D02*
Y2800D01*
D25*
X8250Y5150D02*
X15100D01*
D26*
X30300Y2050D02*
D03*
X32300D02*
D03*
Y4050D02*
D03*
X30300D02*
D03*
X31300Y3050D02*
D03*
X2600Y3000D02*
D03*
X1600Y4000D02*
D03*
X3600D02*
D03*
Y2000D02*
D03*
X1600D02*
D03*
D27*
X17910Y4235D02*
D03*
Y3365D02*
D03*
X11440Y3235D02*
D03*
Y2365D02*
D03*
D28*
X30250Y5200D02*
D03*
X29300Y4700D02*
D03*
Y5750D02*
D03*
X30200Y1050D02*
D03*
X30150Y450D02*
D03*
X31400Y1150D02*
D03*
X30050Y3450D02*
D03*
X29550D02*
D03*
X29150D02*
D03*
X28750D02*
D03*
X30050Y2700D02*
D03*
X29550D02*
D03*
X29150D02*
D03*
X28750D02*
D03*
X26400Y1050D02*
D03*
X27550D02*
D03*
Y2050D02*
D03*
X25050Y1050D02*
D03*
X24100Y950D02*
D03*
X22850D02*
D03*
X23450Y900D02*
D03*
X23300Y2500D02*
D03*
X24950Y3000D02*
D03*
X26100Y2550D02*
D03*
X25700D02*
D03*
X26500D02*
D03*
X22800Y2600D02*
D03*
X11650Y1900D02*
D03*
X11250Y1850D02*
D03*
X11650Y1400D02*
D03*
X14500Y400D02*
D03*
X5700Y4150D02*
D03*
X3450Y4950D02*
D03*
X9200Y3150D02*
D03*
X10050Y2200D02*
D03*
X11550Y4650D02*
D03*
X26550Y3650D02*
D03*
X24900Y3950D02*
D03*
X22800Y3900D02*
D03*
X32600Y5950D02*
D03*
X32650Y250D02*
D03*
X31250Y300D02*
D03*
X32500Y5050D02*
D03*
X31800Y5450D02*
D03*
X30950Y5950D02*
D03*
X29200Y1700D02*
D03*
X29250Y600D02*
D03*
X32550Y1050D02*
D03*
X31400Y3850D02*
D03*
X32150Y3050D02*
D03*
X31400Y2300D02*
D03*
X400Y2550D02*
D03*
X450Y3700D02*
D03*
Y5550D02*
D03*
X6550Y3700D02*
D03*
X5850D02*
D03*
X19400Y1250D02*
D03*
X18600Y1200D02*
D03*
X18000Y1150D02*
D03*
X15600D02*
D03*
X16600D02*
D03*
X17600D02*
D03*
X16000Y1850D02*
D03*
X12900Y1150D02*
D03*
X12300D02*
D03*
X11300Y1400D02*
D03*
X8050Y1450D02*
D03*
X10800Y2200D02*
D03*
X10300Y1400D02*
D03*
X2600Y2300D02*
D03*
X6150Y1350D02*
D03*
X4750D02*
D03*
X2300Y1300D02*
D03*
X2900D02*
D03*
X23850Y5200D02*
D03*
X28250Y2450D02*
D03*
Y3650D02*
D03*
X25800Y1100D02*
D03*
X25050Y2550D02*
D03*
X22750Y3050D02*
D03*
X23850D02*
D03*
X25900Y5450D02*
D03*
X26350Y4000D02*
D03*
X25500Y3100D02*
D03*
X23300Y1950D02*
D03*
X24450D02*
D03*
X23900D02*
D03*
Y2500D02*
D03*
X24450D02*
D03*
X23850Y4250D02*
D03*
X21200Y2950D02*
D03*
X22850Y2000D02*
D03*
X18100Y2100D02*
D03*
X17900Y2800D02*
D03*
X16800Y4750D02*
D03*
X18600Y4450D02*
D03*
X11350Y3700D02*
D03*
X9500Y3450D02*
D03*
X12050D02*
D03*
X12750Y3100D02*
D03*
X14600Y4800D02*
D03*
X15600D02*
D03*
X16100D02*
D03*
X16750Y4200D02*
D03*
X21300Y2000D02*
D03*
X20900Y1350D02*
D03*
X19050Y3650D02*
D03*
X19100Y2650D02*
D03*
X14200Y1050D02*
D03*
X14950Y1150D02*
D03*
X17100Y1600D02*
D03*
X17300Y4450D02*
D03*
X17100Y2200D02*
D03*
X16700Y3650D02*
D03*
X14300Y3100D02*
D03*
X16900Y5900D02*
D03*
X8800Y3600D02*
D03*
X10100Y4450D02*
D03*
X9600Y4850D02*
D03*
X9500Y3800D02*
D03*
X9550Y2450D02*
D03*
X16300Y2300D02*
D03*
X16050Y3100D02*
D03*
X10400Y3550D02*
D03*
X9100Y3900D02*
D03*
X15700Y2850D02*
D03*
X11100Y4150D02*
D03*
X5750Y5350D02*
D03*
X10150Y4900D02*
D03*
X6850Y1950D02*
D03*
X7400D02*
D03*
X6100Y2800D02*
D03*
X5900Y2000D02*
D03*
X6700Y2850D02*
D03*
X5500Y3600D02*
D03*
X450Y1050D02*
D03*
X5850Y3150D02*
D03*
X5450D02*
D03*
X4750Y2100D02*
D03*
X5050D02*
D03*
X5250Y2350D02*
D03*
Y2650D02*
D03*
Y2950D02*
D03*
X8450Y4350D02*
D03*
X6350Y5350D02*
D03*
X500Y5200D02*
D03*
X3100Y4700D02*
D03*
X2750Y5300D02*
D03*
X3150D02*
D03*
X2700Y4700D02*
D03*
X16050Y3700D02*
D03*
X15650Y3500D02*
D03*
X1600Y4900D02*
D03*
X1900D02*
D03*
X2250D02*
D03*
X4200Y2450D02*
D03*
Y3500D02*
D03*
X450Y3100D02*
D03*
X28232Y5098D02*
D03*
Y5498D02*
D03*
X837Y5898D02*
D03*
X437D02*
D03*
X5500D02*
D03*
X5100D02*
D03*
X25050D02*
D03*
X1237D02*
D03*
X5900D02*
D03*
X6300D02*
D03*
X7500D02*
D03*
X7900D02*
D03*
X8300D02*
D03*
X8700D02*
D03*
X17450D02*
D03*
X17850D02*
D03*
X18250D02*
D03*
X18650D02*
D03*
X25450D02*
D03*
X25850D02*
D03*
X26250D02*
D03*
X26650D02*
D03*
X27050D02*
D03*
X27450D02*
D03*
X27850D02*
D03*
X28232D02*
D03*
X4010Y402D02*
D03*
X3610D02*
D03*
X3210D02*
D03*
X2810D02*
D03*
X2410D02*
D03*
X437Y402D02*
D03*
X837D02*
D03*
X1237D02*
D03*
X2410Y5898D02*
D03*
X2810D02*
D03*
X3210D02*
D03*
X3610D02*
D03*
X4010D02*
D03*
X8700Y402D02*
D03*
X8300D02*
D03*
X7900D02*
D03*
X7500D02*
D03*
X6300D02*
D03*
X5900D02*
D03*
X5100D02*
D03*
X5500D02*
D03*
X9900D02*
D03*
X10300D02*
D03*
X10700D02*
D03*
X11100D02*
D03*
X11500Y5898D02*
D03*
X11100D02*
D03*
X10700D02*
D03*
X10300D02*
D03*
X9900D02*
D03*
X13900D02*
D03*
X13500D02*
D03*
X13100D02*
D03*
X12300D02*
D03*
X12700D02*
D03*
X13900Y402D02*
D03*
X13500D02*
D03*
X13100D02*
D03*
X12700D02*
D03*
X12300D02*
D03*
X11500D02*
D03*
X16300D02*
D03*
X15900D02*
D03*
X15500D02*
D03*
X15100D02*
D03*
Y5898D02*
D03*
X15500D02*
D03*
X15900D02*
D03*
X16300D02*
D03*
X18650Y402D02*
D03*
X18250D02*
D03*
X17850D02*
D03*
X17450D02*
D03*
X21050D02*
D03*
X20650D02*
D03*
X20250D02*
D03*
X19850D02*
D03*
X19450D02*
D03*
X19050D02*
D03*
X20250Y5898D02*
D03*
X20650D02*
D03*
X21050D02*
D03*
X21450D02*
D03*
X21850D02*
D03*
X22250D02*
D03*
X19850D02*
D03*
X23450D02*
D03*
X23050D02*
D03*
X22650D02*
D03*
X23850D02*
D03*
X24650Y402D02*
D03*
X23450D02*
D03*
X23850D02*
D03*
X24250D02*
D03*
X23050D02*
D03*
X22650D02*
D03*
X22250D02*
D03*
X21450D02*
D03*
X19050Y5898D02*
D03*
X25050Y402D02*
D03*
X25450D02*
D03*
X25850D02*
D03*
X26250D02*
D03*
X28232D02*
D03*
X27850D02*
D03*
X27450D02*
D03*
X28232Y802D02*
D03*
Y1202D02*
D03*
Y1602D02*
D03*
Y1950D02*
D03*
X7050Y4150D02*
D03*
X5250Y4900D02*
D03*
X4850Y5000D02*
D03*
X4400Y4500D02*
D03*
X16600Y3100D02*
D03*
X9500Y4200D02*
D03*
X1900Y3000D02*
D03*
X14250Y1800D02*
D03*
X12100Y4850D02*
D03*
X14850Y1800D02*
D03*
X15400Y1850D02*
D03*
X2600Y3700D02*
D03*
X9200Y2000D02*
D03*
X8650Y1950D02*
D03*
X8050D02*
D03*
X6950Y3400D02*
D03*
X7950Y3650D02*
D03*
X7900Y2800D02*
D03*
D29*
X11894Y650D02*
D03*
X25550Y4950D02*
D03*
X28084Y4340D02*
D03*
X24394Y5650D02*
D03*
X19394D02*
D03*
X14394D02*
D03*
X9394D02*
D03*
X4394D02*
D03*
X26894Y650D02*
D03*
X21894D02*
D03*
X16894D02*
D03*
X6894D02*
D03*
X1894D02*
D03*
X584Y4340D02*
D03*
Y1960D02*
D03*
X1894Y5650D02*
D03*
X4394Y650D02*
D03*
X6894Y5650D02*
D03*
X9394Y650D02*
D03*
X11894Y5650D02*
D03*
X25550Y3950D02*
D03*
D30*
X20099Y1252D02*
D03*
Y3122D02*
D03*
Y2659D02*
D03*
Y4155D02*
D03*
X20678D02*
D03*
X19520D02*
D03*
X19808Y3693D02*
D03*
X20391D02*
D03*
X13550Y1631D02*
D03*
Y3501D02*
D03*
Y3039D02*
D03*
Y4535D02*
D03*
X14129D02*
D03*
X12971D02*
D03*
X13259Y4072D02*
D03*
X13841D02*
D03*
M02*
