G04 Layer_Physical_Order=2*
G04 Layer_Color=16711680*
%FSLAX24Y24*%
%MOIN*%
G70*
G01*
G75*
%ADD26C,0.0870*%
%ADD27C,0.0157*%
%ADD28C,0.0150*%
%ADD29C,0.0620*%
%ADD30C,0.0252*%
G36*
X32848Y102D02*
X102D01*
Y6148D01*
X32848D01*
Y102D01*
D02*
G37*
%LPC*%
G36*
X2600Y3588D02*
X2485Y3577D01*
X2375Y3543D01*
X2273Y3489D01*
X2184Y3416D01*
X2111Y3327D01*
X2057Y3225D01*
X2023Y3115D01*
X2012Y3000D01*
X2023Y2885D01*
X2057Y2775D01*
X2111Y2673D01*
X2184Y2584D01*
X2273Y2511D01*
X2375Y2457D01*
X2485Y2423D01*
X2600Y2412D01*
X2715Y2423D01*
X2825Y2457D01*
X2927Y2511D01*
X3016Y2584D01*
X3089Y2673D01*
X3143Y2775D01*
X3177Y2885D01*
X3188Y3000D01*
X3177Y3115D01*
X3143Y3225D01*
X3089Y3327D01*
X3016Y3416D01*
X2927Y3489D01*
X2825Y3543D01*
X2715Y3577D01*
X2600Y3588D01*
D02*
G37*
G36*
X25550Y5414D02*
X25430Y5398D01*
X25318Y5352D01*
X25222Y5278D01*
X25148Y5182D01*
X25102Y5070D01*
X25086Y4950D01*
X25102Y4830D01*
X25148Y4718D01*
X25222Y4622D01*
X25318Y4548D01*
X25430Y4502D01*
X25550Y4486D01*
X25670Y4502D01*
X25782Y4548D01*
X25878Y4622D01*
X25952Y4718D01*
X25998Y4830D01*
X26014Y4950D01*
X25998Y5070D01*
X25952Y5182D01*
X25878Y5278D01*
X25782Y5352D01*
X25670Y5398D01*
X25550Y5414D01*
D02*
G37*
G36*
X31300Y3638D02*
X31185Y3627D01*
X31075Y3593D01*
X30973Y3539D01*
X30884Y3466D01*
X30811Y3377D01*
X30757Y3275D01*
X30723Y3165D01*
X30712Y3050D01*
X30723Y2935D01*
X30757Y2825D01*
X30811Y2723D01*
X30884Y2634D01*
X30973Y2561D01*
X31075Y2507D01*
X31185Y2473D01*
X31300Y2462D01*
X31415Y2473D01*
X31525Y2507D01*
X31627Y2561D01*
X31716Y2634D01*
X31789Y2723D01*
X31843Y2825D01*
X31877Y2935D01*
X31888Y3050D01*
X31877Y3165D01*
X31843Y3275D01*
X31789Y3377D01*
X31716Y3466D01*
X31627Y3539D01*
X31525Y3593D01*
X31415Y3627D01*
X31300Y3638D01*
D02*
G37*
%LPD*%
D26*
X30300Y2050D02*
D03*
X32300D02*
D03*
Y4050D02*
D03*
X30300D02*
D03*
X31300Y3050D02*
D03*
X2600Y3000D02*
D03*
X1600Y4000D02*
D03*
X3600D02*
D03*
Y2000D02*
D03*
X1600D02*
D03*
D27*
X17910Y4235D02*
D03*
Y3365D02*
D03*
X11440Y3235D02*
D03*
Y2365D02*
D03*
D28*
X30250Y5200D02*
D03*
X29300Y4700D02*
D03*
Y5750D02*
D03*
X30200Y1050D02*
D03*
X30150Y450D02*
D03*
X31400Y1150D02*
D03*
X30050Y3450D02*
D03*
X29550D02*
D03*
X29150D02*
D03*
X28750D02*
D03*
X30050Y2700D02*
D03*
X29550D02*
D03*
X29150D02*
D03*
X28750D02*
D03*
X26400Y1050D02*
D03*
X27550D02*
D03*
Y2050D02*
D03*
X25050Y1050D02*
D03*
X24100Y950D02*
D03*
X22850D02*
D03*
X23450Y900D02*
D03*
X23300Y2500D02*
D03*
X24950Y3000D02*
D03*
X26100Y2550D02*
D03*
X25700D02*
D03*
X26500D02*
D03*
X22800Y2600D02*
D03*
X11650Y1900D02*
D03*
X11250Y1850D02*
D03*
X11650Y1400D02*
D03*
X14500Y400D02*
D03*
X5700Y4150D02*
D03*
X3450Y4950D02*
D03*
X9200Y3150D02*
D03*
X10050Y2200D02*
D03*
X11550Y4650D02*
D03*
X26550Y3650D02*
D03*
X24900Y3950D02*
D03*
X22800Y3900D02*
D03*
X32600Y5950D02*
D03*
X32650Y250D02*
D03*
X31250Y300D02*
D03*
X32500Y5050D02*
D03*
X31800Y5450D02*
D03*
X30950Y5950D02*
D03*
X29200Y1700D02*
D03*
X29250Y600D02*
D03*
X32550Y1050D02*
D03*
X31400Y3850D02*
D03*
X32150Y3050D02*
D03*
X31400Y2300D02*
D03*
X400Y2550D02*
D03*
X450Y3700D02*
D03*
Y5550D02*
D03*
X6550Y3700D02*
D03*
X5850D02*
D03*
X19400Y1250D02*
D03*
X18600Y1200D02*
D03*
X18000Y1150D02*
D03*
X15600D02*
D03*
X16600D02*
D03*
X17600D02*
D03*
X16000Y1850D02*
D03*
X12900Y1150D02*
D03*
X12300D02*
D03*
X11300Y1400D02*
D03*
X8050Y1450D02*
D03*
X10800Y2200D02*
D03*
X10300Y1400D02*
D03*
X2600Y2300D02*
D03*
X6150Y1350D02*
D03*
X4750D02*
D03*
X2300Y1300D02*
D03*
X2900D02*
D03*
X23850Y5200D02*
D03*
X28250Y2450D02*
D03*
Y3650D02*
D03*
X25800Y1100D02*
D03*
X25050Y2550D02*
D03*
X22750Y3050D02*
D03*
X23850D02*
D03*
X25900Y5450D02*
D03*
X26350Y4000D02*
D03*
X25500Y3100D02*
D03*
X23300Y1950D02*
D03*
X24450D02*
D03*
X23900D02*
D03*
Y2500D02*
D03*
X24450D02*
D03*
X23850Y4250D02*
D03*
X21200Y2950D02*
D03*
X22850Y2000D02*
D03*
X18100Y2100D02*
D03*
X17900Y2800D02*
D03*
X16800Y4750D02*
D03*
X18600Y4450D02*
D03*
X11350Y3700D02*
D03*
X9500Y3450D02*
D03*
X12050D02*
D03*
X12750Y3100D02*
D03*
X14600Y4800D02*
D03*
X15600D02*
D03*
X16100D02*
D03*
X16750Y4200D02*
D03*
X21300Y2000D02*
D03*
X20900Y1350D02*
D03*
X19050Y3650D02*
D03*
X19100Y2650D02*
D03*
X14200Y1050D02*
D03*
X14950Y1150D02*
D03*
X17100Y1600D02*
D03*
X17300Y4450D02*
D03*
X17100Y2200D02*
D03*
X16700Y3650D02*
D03*
X14300Y3100D02*
D03*
X16900Y5900D02*
D03*
X8800Y3600D02*
D03*
X10100Y4450D02*
D03*
X9600Y4850D02*
D03*
X9500Y3800D02*
D03*
X9550Y2450D02*
D03*
X16300Y2300D02*
D03*
X16050Y3100D02*
D03*
X10400Y3550D02*
D03*
X9100Y3900D02*
D03*
X15700Y2850D02*
D03*
X11100Y4150D02*
D03*
X5750Y5350D02*
D03*
X10150Y4900D02*
D03*
X6850Y1950D02*
D03*
X7400D02*
D03*
X6100Y2800D02*
D03*
X5900Y2000D02*
D03*
X6700Y2850D02*
D03*
X5500Y3600D02*
D03*
X450Y1050D02*
D03*
X5850Y3150D02*
D03*
X5450D02*
D03*
X4750Y2100D02*
D03*
X5050D02*
D03*
X5250Y2350D02*
D03*
Y2650D02*
D03*
Y2950D02*
D03*
X8450Y4350D02*
D03*
X6350Y5350D02*
D03*
X500Y5200D02*
D03*
X3100Y4700D02*
D03*
X2750Y5300D02*
D03*
X3150D02*
D03*
X2700Y4700D02*
D03*
X16050Y3700D02*
D03*
X15650Y3500D02*
D03*
X1600Y4900D02*
D03*
X1900D02*
D03*
X2250D02*
D03*
X4200Y2450D02*
D03*
Y3500D02*
D03*
X450Y3100D02*
D03*
X28232Y5098D02*
D03*
Y5498D02*
D03*
X837Y5898D02*
D03*
X437D02*
D03*
X5500D02*
D03*
X5100D02*
D03*
X25050D02*
D03*
X1237D02*
D03*
X5900D02*
D03*
X6300D02*
D03*
X7500D02*
D03*
X7900D02*
D03*
X8300D02*
D03*
X8700D02*
D03*
X17450D02*
D03*
X17850D02*
D03*
X18250D02*
D03*
X18650D02*
D03*
X25450D02*
D03*
X25850D02*
D03*
X26250D02*
D03*
X26650D02*
D03*
X27050D02*
D03*
X27450D02*
D03*
X27850D02*
D03*
X28232D02*
D03*
X4010Y402D02*
D03*
X3610D02*
D03*
X3210D02*
D03*
X2810D02*
D03*
X2410D02*
D03*
X437Y402D02*
D03*
X837D02*
D03*
X1237D02*
D03*
X2410Y5898D02*
D03*
X2810D02*
D03*
X3210D02*
D03*
X3610D02*
D03*
X4010D02*
D03*
X8700Y402D02*
D03*
X8300D02*
D03*
X7900D02*
D03*
X7500D02*
D03*
X6300D02*
D03*
X5900D02*
D03*
X5100D02*
D03*
X5500D02*
D03*
X9900D02*
D03*
X10300D02*
D03*
X10700D02*
D03*
X11100D02*
D03*
X11500Y5898D02*
D03*
X11100D02*
D03*
X10700D02*
D03*
X10300D02*
D03*
X9900D02*
D03*
X13900D02*
D03*
X13500D02*
D03*
X13100D02*
D03*
X12300D02*
D03*
X12700D02*
D03*
X13900Y402D02*
D03*
X13500D02*
D03*
X13100D02*
D03*
X12700D02*
D03*
X12300D02*
D03*
X11500D02*
D03*
X16300D02*
D03*
X15900D02*
D03*
X15500D02*
D03*
X15100D02*
D03*
Y5898D02*
D03*
X15500D02*
D03*
X15900D02*
D03*
X16300D02*
D03*
X18650Y402D02*
D03*
X18250D02*
D03*
X17850D02*
D03*
X17450D02*
D03*
X21050D02*
D03*
X20650D02*
D03*
X20250D02*
D03*
X19850D02*
D03*
X19450D02*
D03*
X19050D02*
D03*
X20250Y5898D02*
D03*
X20650D02*
D03*
X21050D02*
D03*
X21450D02*
D03*
X21850D02*
D03*
X22250D02*
D03*
X19850D02*
D03*
X23450D02*
D03*
X23050D02*
D03*
X22650D02*
D03*
X23850D02*
D03*
X24650Y402D02*
D03*
X23450D02*
D03*
X23850D02*
D03*
X24250D02*
D03*
X23050D02*
D03*
X22650D02*
D03*
X22250D02*
D03*
X21450D02*
D03*
X19050Y5898D02*
D03*
X25050Y402D02*
D03*
X25450D02*
D03*
X25850D02*
D03*
X26250D02*
D03*
X28232D02*
D03*
X27850D02*
D03*
X27450D02*
D03*
X28232Y802D02*
D03*
Y1202D02*
D03*
Y1602D02*
D03*
Y1950D02*
D03*
X7050Y4150D02*
D03*
X5250Y4900D02*
D03*
X4850Y5000D02*
D03*
X4400Y4500D02*
D03*
X16600Y3100D02*
D03*
X9500Y4200D02*
D03*
X1900Y3000D02*
D03*
X14250Y1800D02*
D03*
X12100Y4850D02*
D03*
X14850Y1800D02*
D03*
X15400Y1850D02*
D03*
X2600Y3700D02*
D03*
X9200Y2000D02*
D03*
X8650Y1950D02*
D03*
X8050D02*
D03*
X6950Y3400D02*
D03*
X7950Y3650D02*
D03*
X7900Y2800D02*
D03*
D29*
X11894Y650D02*
D03*
X25550Y4950D02*
D03*
X28084Y4340D02*
D03*
X24394Y5650D02*
D03*
X19394D02*
D03*
X14394D02*
D03*
X9394D02*
D03*
X4394D02*
D03*
X26894Y650D02*
D03*
X21894D02*
D03*
X16894D02*
D03*
X6894D02*
D03*
X1894D02*
D03*
X584Y4340D02*
D03*
Y1960D02*
D03*
X1894Y5650D02*
D03*
X4394Y650D02*
D03*
X6894Y5650D02*
D03*
X9394Y650D02*
D03*
X11894Y5650D02*
D03*
X25550Y3950D02*
D03*
D30*
X20099Y1252D02*
D03*
Y3122D02*
D03*
Y2659D02*
D03*
Y4155D02*
D03*
X20678D02*
D03*
X19520D02*
D03*
X19808Y3693D02*
D03*
X20391D02*
D03*
X13550Y1631D02*
D03*
Y3501D02*
D03*
Y3039D02*
D03*
Y4535D02*
D03*
X14129D02*
D03*
X12971D02*
D03*
X13259Y4072D02*
D03*
X13841D02*
D03*
M02*
