G04 Layer_Color=8388736*
%FSLAX24Y24*%
%MOIN*%
G70*
G01*
G75*
%ADD36R,0.0625X0.2215*%
%ADD37R,0.0625X0.2710*%
%ADD38R,0.0625X0.2265*%
%ADD39R,2.8125X0.0625*%
%ADD40R,2.8125X0.0625*%
%ADD41R,0.0625X0.2560*%
%ADD42R,0.0320X0.0570*%
%ADD43R,0.0489X0.0789*%
%ADD44R,0.0678X0.0678*%
%ADD45R,0.1879X0.1482*%
%ADD46R,0.0781X0.0730*%
%ADD47R,0.0419X0.1108*%
%ADD48R,0.0474X0.0474*%
%ADD49R,0.0460X0.0280*%
%ADD50R,0.0460X0.0400*%
%ADD51R,0.0440X0.0400*%
%ADD52R,0.0400X0.0440*%
%ADD53R,0.0600X0.0465*%
%ADD54R,0.0560X0.0960*%
%ADD55R,0.1500X0.0950*%
%ADD56C,0.0950*%
%ADD57C,0.0237*%
%ADD58C,0.0230*%
%ADD59C,0.0700*%
%ADD60C,0.0332*%
D36*
X437Y2843D02*
D03*
Y1593D02*
D03*
D37*
X28232Y4855D02*
D03*
D38*
X437Y4682D02*
D03*
D39*
X14187Y402D02*
D03*
D03*
D40*
Y5898D02*
D03*
D03*
D41*
X28232Y1370D02*
D03*
D42*
X17910Y4165D02*
D03*
Y3435D02*
D03*
X11440Y3165D02*
D03*
Y2435D02*
D03*
D43*
X17270Y3800D02*
D03*
X18550D02*
D03*
X10800Y2800D02*
D03*
X12080D02*
D03*
D44*
X19398Y2000D02*
D03*
X20800D02*
D03*
X12849Y2379D02*
D03*
X14251D02*
D03*
D45*
X20099Y3821D02*
D03*
X13550Y4200D02*
D03*
D46*
X20099Y2795D02*
D03*
X13550Y3174D02*
D03*
D47*
X20099Y1961D02*
D03*
X13550Y2340D02*
D03*
D48*
X20099Y1252D02*
D03*
X13550Y1631D02*
D03*
D49*
X5653Y2400D02*
D03*
X4800Y2916D02*
D03*
Y2400D02*
D03*
D50*
X5653Y2856D02*
D03*
D51*
X26400Y1400D02*
D03*
X25800D02*
D03*
X26400Y2100D02*
D03*
X25800D02*
D03*
X10700Y4650D02*
D03*
X11300D02*
D03*
X17250Y2700D02*
D03*
X16650D02*
D03*
X10650Y3950D02*
D03*
X10050D02*
D03*
X7650Y4350D02*
D03*
X8250D02*
D03*
X6550Y4950D02*
D03*
X5950D02*
D03*
X8250Y5100D02*
D03*
X7650D02*
D03*
X7250Y1450D02*
D03*
X7850D02*
D03*
X23400Y1350D02*
D03*
X22800D02*
D03*
X25750Y3100D02*
D03*
X26350D02*
D03*
X21400Y2900D02*
D03*
X22000D02*
D03*
X15850Y2350D02*
D03*
X15250D02*
D03*
X12850Y1650D02*
D03*
X12250D02*
D03*
X8950Y2400D02*
D03*
X8350D02*
D03*
X4150Y3000D02*
D03*
X3550D02*
D03*
X6550Y4150D02*
D03*
X5950D02*
D03*
X16500Y4200D02*
D03*
X15900D02*
D03*
X4250Y4950D02*
D03*
X3650D02*
D03*
X8950Y3150D02*
D03*
X8350D02*
D03*
D52*
X25050Y1650D02*
D03*
Y2250D02*
D03*
X22100Y4350D02*
D03*
Y3750D02*
D03*
X17600Y1950D02*
D03*
Y1350D02*
D03*
X16600Y1950D02*
D03*
Y1350D02*
D03*
X10050Y3100D02*
D03*
Y2500D02*
D03*
X6400Y2350D02*
D03*
Y1750D02*
D03*
X15100Y5100D02*
D03*
Y4500D02*
D03*
X9050Y5000D02*
D03*
Y4400D02*
D03*
X27150Y2050D02*
D03*
Y1450D02*
D03*
X18600Y2050D02*
D03*
Y2650D02*
D03*
X26350Y4300D02*
D03*
Y4900D02*
D03*
D53*
X27200Y2850D02*
D03*
Y3475D02*
D03*
X21900Y1450D02*
D03*
Y2075D02*
D03*
X27200Y4300D02*
D03*
Y4925D02*
D03*
X15050Y3100D02*
D03*
Y3725D02*
D03*
X5050Y3700D02*
D03*
Y4325D02*
D03*
X7400Y2400D02*
D03*
Y3025D02*
D03*
D54*
X24760Y4700D02*
D03*
X23850D02*
D03*
X22940D02*
D03*
D55*
X23850Y2250D02*
D03*
D56*
X30300Y2050D02*
D03*
X32300D02*
D03*
Y4050D02*
D03*
X30300D02*
D03*
X31300Y3050D02*
D03*
X2600Y3000D02*
D03*
X1600Y4000D02*
D03*
X3600D02*
D03*
Y2000D02*
D03*
X1600D02*
D03*
D57*
X17910Y4235D02*
D03*
Y3365D02*
D03*
X11440Y3235D02*
D03*
Y2365D02*
D03*
D58*
X30250Y5200D02*
D03*
X29300Y4700D02*
D03*
Y5750D02*
D03*
X30200Y1050D02*
D03*
X30150Y450D02*
D03*
X31400Y1150D02*
D03*
X30050Y3450D02*
D03*
X29550D02*
D03*
X29150D02*
D03*
X28750D02*
D03*
X30050Y2700D02*
D03*
X29550D02*
D03*
X29150D02*
D03*
X28750D02*
D03*
X26400Y1050D02*
D03*
X27550D02*
D03*
Y2050D02*
D03*
X25050Y1050D02*
D03*
X24100Y950D02*
D03*
X22850D02*
D03*
X23450Y900D02*
D03*
X23300Y2500D02*
D03*
X24950Y3000D02*
D03*
X26100Y2550D02*
D03*
X25700D02*
D03*
X26500D02*
D03*
X22800Y2600D02*
D03*
X11650Y1900D02*
D03*
X11250Y1850D02*
D03*
X11650Y1400D02*
D03*
X14500Y400D02*
D03*
X5700Y4150D02*
D03*
X3450Y4950D02*
D03*
X9200Y3150D02*
D03*
X10050Y2200D02*
D03*
X11550Y4650D02*
D03*
X26550Y3650D02*
D03*
X24900Y3950D02*
D03*
X22800Y3900D02*
D03*
X32600Y5950D02*
D03*
X32650Y250D02*
D03*
X31250Y300D02*
D03*
X32500Y5050D02*
D03*
X31800Y5450D02*
D03*
X30950Y5950D02*
D03*
X29200Y1700D02*
D03*
X29250Y600D02*
D03*
X32550Y1050D02*
D03*
X31400Y3850D02*
D03*
X32150Y3050D02*
D03*
X31400Y2300D02*
D03*
X400Y2550D02*
D03*
X450Y3700D02*
D03*
Y5550D02*
D03*
X6550Y3700D02*
D03*
X5850D02*
D03*
X19400Y1250D02*
D03*
X18600Y1200D02*
D03*
X18000Y1150D02*
D03*
X15600D02*
D03*
X16600D02*
D03*
X17600D02*
D03*
X16000Y1850D02*
D03*
X12900Y1150D02*
D03*
X12300D02*
D03*
X11300Y1400D02*
D03*
X8050Y1450D02*
D03*
X10800Y2200D02*
D03*
X10300Y1400D02*
D03*
X2600Y2300D02*
D03*
X6150Y1350D02*
D03*
X4750D02*
D03*
X2300Y1300D02*
D03*
X2900D02*
D03*
X23850Y5200D02*
D03*
X28250Y2450D02*
D03*
Y3650D02*
D03*
X25800Y1100D02*
D03*
X25050Y2550D02*
D03*
X22750Y3050D02*
D03*
X23850D02*
D03*
X25900Y5450D02*
D03*
X26350Y4000D02*
D03*
X25500Y3100D02*
D03*
X23300Y1950D02*
D03*
X24450D02*
D03*
X23900D02*
D03*
Y2500D02*
D03*
X24450D02*
D03*
X23850Y4250D02*
D03*
X21200Y2950D02*
D03*
X22850Y2000D02*
D03*
X18100Y2100D02*
D03*
X17900Y2800D02*
D03*
X16800Y4750D02*
D03*
X18600Y4450D02*
D03*
X11350Y3700D02*
D03*
X9500Y3450D02*
D03*
X12050D02*
D03*
X12750Y3100D02*
D03*
X14600Y4800D02*
D03*
X15600D02*
D03*
X16100D02*
D03*
X16750Y4200D02*
D03*
X21300Y2000D02*
D03*
X20900Y1350D02*
D03*
X19050Y3650D02*
D03*
X19100Y2650D02*
D03*
X14200Y1050D02*
D03*
X14950Y1150D02*
D03*
X17100Y1600D02*
D03*
X17300Y4450D02*
D03*
X17100Y2200D02*
D03*
X16700Y3650D02*
D03*
X14300Y3100D02*
D03*
X16900Y5900D02*
D03*
X8800Y3600D02*
D03*
X10100Y4450D02*
D03*
X9600Y4850D02*
D03*
X9500Y3800D02*
D03*
X9550Y2450D02*
D03*
X16300Y2300D02*
D03*
X16050Y3100D02*
D03*
X10400Y3550D02*
D03*
X9100Y3900D02*
D03*
X15700Y2850D02*
D03*
X11100Y4150D02*
D03*
X5750Y5350D02*
D03*
X10150Y4900D02*
D03*
X6850Y1950D02*
D03*
X7400D02*
D03*
X6100Y2800D02*
D03*
X5900Y2000D02*
D03*
X6700Y2850D02*
D03*
X5500Y3600D02*
D03*
X450Y1050D02*
D03*
X5850Y3150D02*
D03*
X5450D02*
D03*
X4750Y2100D02*
D03*
X5050D02*
D03*
X5250Y2350D02*
D03*
Y2650D02*
D03*
Y2950D02*
D03*
X8450Y4350D02*
D03*
X6350Y5350D02*
D03*
X500Y5200D02*
D03*
X3100Y4700D02*
D03*
X2750Y5300D02*
D03*
X3150D02*
D03*
X2700Y4700D02*
D03*
X16050Y3700D02*
D03*
X15650Y3500D02*
D03*
X1600Y4900D02*
D03*
X1900D02*
D03*
X2250D02*
D03*
X4200Y2450D02*
D03*
Y3500D02*
D03*
X450Y3100D02*
D03*
X28232Y5098D02*
D03*
Y5498D02*
D03*
X837Y5898D02*
D03*
X437D02*
D03*
X5500D02*
D03*
X5100D02*
D03*
X25050D02*
D03*
X1237D02*
D03*
X5900D02*
D03*
X6300D02*
D03*
X7500D02*
D03*
X7900D02*
D03*
X8300D02*
D03*
X8700D02*
D03*
X17450D02*
D03*
X17850D02*
D03*
X18250D02*
D03*
X18650D02*
D03*
X25450D02*
D03*
X25850D02*
D03*
X26250D02*
D03*
X26650D02*
D03*
X27050D02*
D03*
X27450D02*
D03*
X27850D02*
D03*
X28232D02*
D03*
X4010Y402D02*
D03*
X3610D02*
D03*
X3210D02*
D03*
X2810D02*
D03*
X2410D02*
D03*
X437Y402D02*
D03*
X837D02*
D03*
X1237D02*
D03*
X2410Y5898D02*
D03*
X2810D02*
D03*
X3210D02*
D03*
X3610D02*
D03*
X4010D02*
D03*
X8700Y402D02*
D03*
X8300D02*
D03*
X7900D02*
D03*
X7500D02*
D03*
X6300D02*
D03*
X5900D02*
D03*
X5100D02*
D03*
X5500D02*
D03*
X9900D02*
D03*
X10300D02*
D03*
X10700D02*
D03*
X11100D02*
D03*
X11500Y5898D02*
D03*
X11100D02*
D03*
X10700D02*
D03*
X10300D02*
D03*
X9900D02*
D03*
X13900D02*
D03*
X13500D02*
D03*
X13100D02*
D03*
X12300D02*
D03*
X12700D02*
D03*
X13900Y402D02*
D03*
X13500D02*
D03*
X13100D02*
D03*
X12700D02*
D03*
X12300D02*
D03*
X11500D02*
D03*
X16300D02*
D03*
X15900D02*
D03*
X15500D02*
D03*
X15100D02*
D03*
Y5898D02*
D03*
X15500D02*
D03*
X15900D02*
D03*
X16300D02*
D03*
X18650Y402D02*
D03*
X18250D02*
D03*
X17850D02*
D03*
X17450D02*
D03*
X21050D02*
D03*
X20650D02*
D03*
X20250D02*
D03*
X19850D02*
D03*
X19450D02*
D03*
X19050D02*
D03*
X20250Y5898D02*
D03*
X20650D02*
D03*
X21050D02*
D03*
X21450D02*
D03*
X21850D02*
D03*
X22250D02*
D03*
X19850D02*
D03*
X23450D02*
D03*
X23050D02*
D03*
X22650D02*
D03*
X23850D02*
D03*
X24650Y402D02*
D03*
X23450D02*
D03*
X23850D02*
D03*
X24250D02*
D03*
X23050D02*
D03*
X22650D02*
D03*
X22250D02*
D03*
X21450D02*
D03*
X19050Y5898D02*
D03*
X25050Y402D02*
D03*
X25450D02*
D03*
X25850D02*
D03*
X26250D02*
D03*
X28232D02*
D03*
X27850D02*
D03*
X27450D02*
D03*
X28232Y802D02*
D03*
Y1202D02*
D03*
Y1602D02*
D03*
Y1950D02*
D03*
X7050Y4150D02*
D03*
X5250Y4900D02*
D03*
X4850Y5000D02*
D03*
X4400Y4500D02*
D03*
X16600Y3100D02*
D03*
X9500Y4200D02*
D03*
X1900Y3000D02*
D03*
X14250Y1800D02*
D03*
X12100Y4850D02*
D03*
X14850Y1800D02*
D03*
X15400Y1850D02*
D03*
X2600Y3700D02*
D03*
X9200Y2000D02*
D03*
X8650Y1950D02*
D03*
X8050D02*
D03*
X6950Y3400D02*
D03*
X7950Y3650D02*
D03*
X7900Y2800D02*
D03*
D59*
X11894Y650D02*
D03*
X25550Y4950D02*
D03*
X28084Y4340D02*
D03*
X24394Y5650D02*
D03*
X19394D02*
D03*
X14394D02*
D03*
X9394D02*
D03*
X4394D02*
D03*
X26894Y650D02*
D03*
X21894D02*
D03*
X16894D02*
D03*
X6894D02*
D03*
X1894D02*
D03*
X584Y4340D02*
D03*
Y1960D02*
D03*
X1894Y5650D02*
D03*
X4394Y650D02*
D03*
X6894Y5650D02*
D03*
X9394Y650D02*
D03*
X11894Y5650D02*
D03*
X25550Y3950D02*
D03*
D60*
X20099Y1252D02*
D03*
Y3122D02*
D03*
Y2659D02*
D03*
Y4155D02*
D03*
X20678D02*
D03*
X19520D02*
D03*
X19808Y3693D02*
D03*
X20391D02*
D03*
X13550Y1631D02*
D03*
Y3501D02*
D03*
Y3039D02*
D03*
Y4535D02*
D03*
X14129D02*
D03*
X12971D02*
D03*
X13259Y4072D02*
D03*
X13841D02*
D03*
M02*
